<svg viewBox="0 0 500 500" preserveAspectRatio="xMidYMid meet" data-bbox="121.747 90.63 202.302 386.37" height="500" width="500" xmlns="http://www.w3.org/2000/svg" data-type="ugc" role="presentation" aria-hidden="true" aria-label="">
    <g>
        <path fill="#F6AAA1" d="M171.797 90.684c3.234.003 6.467-.02 9.701-.046 15.986-.05 32.286.514 47.315 6.55l2.364.914c30.558 12.216 56.174 37.823 70.292 67.292 11.822 27.835 12.014 59.62 1.09 87.798C297.734 264.837 291.355 275.547 283 285l-2.113 2.441C272.86 296.553 264.305 305.188 255 313c8.907 18.048 18.145 35.888 28.137 53.362 4.372 7.68 8.483 15.477 12.537 23.33 3.92 7.577 7.996 15.055 12.17 22.495l1.094 1.976c.973 1.683 2.06 3.298 3.156 4.903 3.25 5.69 3.795 12.505 4.906 18.871.506 2.792 1.022 5.582 1.54 8.371l.377 2.05c1.17 6.276 2.687 12.407 4.42 18.548.737 3.438.778 6.587.663 10.094-8.075-2.613-12.32-8.535-17.41-14.938-3.296-4.014-7.026-7.596-10.78-11.178-1.304-1.26-2.561-2.568-3.81-3.884v-2l-1.687-.094c-2.962-.52-4.789-1.232-7.313-2.906-2.84-4.334-4.85-8.95-6.943-13.68-1.764-3.873-3.75-7.624-5.744-11.383l-1.267-2.408c-3.231-6.1-6.62-12.1-10.046-18.092-6.42-11.232-12.466-22.65-18.468-34.11l-2.172-4.136-1.067-2.031c-3.054-5.784-6.259-11.48-9.538-17.138C225 334.214 225 334.214 225 332l-1.573.734a1250 1250 0 0 1-7.114 3.266l-2.475 1.156-2.412 1.094-2.206 1.015c-2.515.832-4.587.864-7.22.735-1.585-3.468-2.587-6.182-2-10 2-2.313 2-2.313 4-4l-6-2c.875-5.875.875-5.875 2-7l-2.437-1.125C195 314 195 314 194.125 310.937 194 308 194 308 195 306l-1.937-.875C191 304 191 304 190 302c-.258-4.052-.304-5.544 2-9l-4-1c-.466-3.734-.693-5.9 1.35-9.141l1.674-2.11 1.677-2.14 1.3-1.61-1.402-2.664c-15.512-29.536-15.512-29.536-21.661-43.71l-1.244-2.856c-2.694-6.357-2.694-6.357-2.694-9.77l-1.875-.312C163 217 163 217 161 214l-1-7-2-3 .016 1.784q.192 21.894.376 43.789.089 10.59.181 21.179c.153 17.483.29 34.967.402 52.45q.038 5.592.08 11.182.06 8.562.088 17.123.014 3.096.037 6.192c.081 10.976-.157 21.474-2.18 32.3l1.868.833c4.1 2.245 5.773 6.112 7.234 10.402 2.342 9.816.985 20.13-.578 29.973-.634 4.593-1.032 9.168-1.336 13.793l-.197 2.429c-.37 6.366 1.05 10.22 5.197 15.196C171 465 171 465 171 469c-3.8 2.615-7.255 1.88-11.562 1.187l-2.037-.29c-2.916-.432-5.6-.963-8.4-1.897v-2l-1.626-.688c-9.083-5.02-14.702-13.629-17.68-23.437-2.875-16.027-1.576-34.388 4.383-49.632 1.08-3.798 1.017-7.15.75-11.036l-.126-2.242a931 931 0 0 0-.452-7.153l-.296-4.915c-.561-9.108-1.252-18.187-2.348-27.248-.45-3.765-.644-7.362-.48-11.15.128-4.65-1.35-8.25-3.063-12.524-3.506-9.815-3.571-20.598-4.125-30.913l-.236-4.072a1667 1667 0 0 1-.58-10.715c-.123-2.308-.258-4.616-.394-6.923-.89-15.86-.969-31.722-.978-47.602l-.002-2.181c-.024-21.851.448-43.623 1.627-65.444l.192-3.61c1.949-35.859 1.949-35.859 8.433-48.515 2.92-2.146 3.672-2.521 7-3l2.164-.5c10.122-2.071 20.343-1.837 30.633-1.816M135 105l-1 3 6-1c-2.381-1.414-2.381-1.414-5-2m-2 7 1 3Zm3 6-3 4 1 2 4-2-1.25 2.937-.812 1.918a154 154 0 0 1-2.063 4.508c-.37.788-.742 1.575-1.125 2.387l-1.078 2.234c-.95 2.18-.95 2.18.328 5.016l1.313-1.438C135 138 135 138 138 137l-1.812 3.625-1.094 2.203a238 238 0 0 1-2.906 5.547L131 151l1 2 4-3c-1.425 4.925-3.605 9.168-6.074 13.632-1.039 2.657-.922 3.746.074 6.368l1.75-2.438c2.338-2.662 2.964-2.962 6.25-3.562l-1.933 3.289-2.504 4.336-1.276 2.16c-2.342 4.084-3.872 7.43-4.287 12.215l1.426-1.278 1.887-1.66 1.863-1.652C135 180 135 180 138 179l-1.172 1.87c-5.167 8.202-5.167 8.202-8.828 17.13l1 3 1.813-1.938C133 197 133 197 136 196l-1.496 2.308c-3.98 6.415-6.377 11.106-6.504 18.692l5-4c-.422 4.013-1.489 7.32-3.062 11-1.606 3.838-2.382 6.78-1.938 11l2.313-2.438C133 230 133 230 136 229l-1.277 2.597-1.66 3.465-1.652 3.41c-1.427 3.568-2.027 6.718-2.41 10.528l2.312-2.438C134 244 134 244 137 243l-1.75 3.5-1.093 2.21a141 141 0 0 1-2.313 4.391c-2.246 4.155-3.33 7.043-2.844 11.899l7-6-1.312 3-1.688 4-.867 1.965c-2.036 4.895-2.416 8.738-2.133 14.035l1.813-2.313c4.421-5.432 4.421-5.432 8.187-6.687l-1.242 2.195c-5.125 8.097-5.125 8.097-6.383 17.18L133 294l.688-2.438L135 289c2.582-.66 2.582-.66 5-1l-1.277 2.379c-4.17 7.932-4.17 7.932-5.723 16.62l1.813-2.437C137 302 137 302 140 301l-.91 1.863-1.152 2.45-1.16 2.425c-1.075 2.382-1.075 2.382.222 5.262l3-1-.875 2.37c-.37 1.013-.742 2.025-1.125 3.067l-1.125 3.059c-.93 2.219-.93 2.219-.875 3.504h18q-.36-20.736-.73-41.473-.172-9.634-.34-19.267c2.777-51 2.777-51-4.93-100.26-.195-2.676-.195-2.676-.125-5.313l.055-2.676L148 153l-6-2c.446-4.639.969-7.442 4-11v-2l-2.937-1.063C140 135 140 135 138.938 131.625c.068-3.953.808-5.47 3.062-8.625v-2zm-4 6 1 2Zm23 43v6l2.688-1.438c2.883-1.36 5.188-2.103 8.312-2.562v-1zm14 1 1.688.812L173 170c.805.35 1.61.7 2.438 1.062 3.298 2.494 4.523 5.275 6.254 8.977 1.131 2.136 1.131 2.136 3.336 2.61l1.972.35c2.218 2.219 2.333 2.968 2.875 5.938.689 3.372.689 3.372 3.25 5.625L195 196l-.234 3.011c.326 5.556 2.801 8.708 5.86 13.239 5.592 8.616 10.519 17.426 15.187 26.562l.945 1.846Q219.396 245.821 222 251c10.649-10.357 17.514-22.65 18.133-37.739-.595-14.617-6.605-26.333-17.133-36.261-8.674-6.89-17.184-10.121-28.316-10.133l-3.564-.004-3.682.012-3.693-.012-3.561.004-3.233.003c-2.76.121-5.264.505-7.95 1.13m-13 9c-1.067 5.463-1.125 10.312 2 15 3.541-1.383 6.992-2.897 10.438-4.5 3.8-1.742 7.547-3.307 11.562-4.5-1.271-4.972-2.797-7.96-7-11-6.11-1.446-13.027-.121-17 5m28 6c-1.943.956-1.943.956-4.125 2.437-7.02 4.388-14.445 7.93-21.875 11.563l1 4c3.584 1.002 3.584 1.002 7 0l-2 5 2 1 1.263-1.4c1.833-1.689 3.203-2.368 5.53-3.206l2.159-.79 2.236-.792 2.271-.826c1.845-.67 3.693-1.329 5.541-1.986-1.468 1.468-3.19 2.297-5 3.312l-2.437 1.367c-3.173 1.635-6.442 2.87-9.813 4.036-2.098 1.25-2.098 1.25-2.5 4.414l-.25 2.87c9.767-4.826 19.446-9.764 29-15l-1-2-3-1c-1.424-2.848-2.178-5.667-3-8.75l-1-3.25zm8 21-5 4 1.219 2.193 7.72 13.895q4.595 8.265 9.179 16.537l1.367 2.467q1.23 2.217 2.456 4.436c1.958 3.53 3.957 7.026 6.06 10.472l4-2c-.593-3.827-1.717-6.69-3.59-10.07l-1.614-2.941-1.734-3.114-3.55-6.461-1.792-3.257c-2.932-5.381-5.756-10.819-8.56-16.267-1.83-3.52-3.62-6.816-6.16-9.89m-19 10-3 3 28 56h4c1.128-2.772 1.062-3.842-.044-6.679l-1.64-3.056-1.8-3.406-1.953-3.61q-.98-1.843-1.957-3.689a2605 2605 0 0 0-3.863-7.27 494 494 0 0 1-6.243-12.228l-.925-1.864Q182.286 228.6 181 226q-1.747-3.502-3.5-7l-2.5-5zm75 103c.577 3.595 1.52 6.323 3.301 9.492l1.444 2.6 1.568 2.783q1.653 2.98 3.3 5.96l1.71 3.093c2.632 4.82 5.156 9.694 7.677 14.572a979 979 0 0 0 12.99 24.202c3.412 6.217 6.657 12.506 9.85 18.837l1.286 2.539q3.212 6.342 6.377 12.707 1.184 2.35 2.372 4.699l1.082 2.21c1.436 2.817 2.578 4.972 5.176 6.838 1.942.702 1.942.702 3.867-.532-1.501-4.086-3.506-7.751-5.687-11.5-4.356-7.621-8.418-15.385-12.438-23.188l-.963-1.869q-2.965-5.756-5.922-11.515c-11.102-21.65-11.102-21.65-22.552-43.116l-1.407-2.587c-4.78-8.754-4.78-8.754-10.03-17.225-1.224-.075-1.224-.075-3 1m-19 12c1.353 3.548 2.919 6.855 4.73 10.191l1.661 3.069 1.797 3.302 4.82 8.9c2.27 4.192 4.52 8.393 6.762 12.6a2044 2044 0 0 0 23.642 43.11q2.289 4.079 4.545 8.175l1.376 2.494q1.24 2.25 2.473 4.505A139 139 0 0 0 288 437l5-2a2566 2566 0 0 0-12.875-23.375c-12.629-22.713-25.173-45.461-37.399-68.395A4681 4681 0 0 0 234 327c-1.84 0-3.396 1.172-5 2m-92 1 1 2h8v1l-9 2v2l9-1-1 2c-2.314.73-4.648 1.401-7 2v1l8 1v1l-8 2v1q3.157.04 6.313.062l3.55.035c3.168.052 3.168.052 6.137-1.097v-15zm2 19v7h9l-1 2c-2.314.73-4.648 1.401-7 2l1 3 8-2v3l-8 2v3l2.938-.063C147 369 147 369 148 370l-7 3v3l7-2v3l-5 2v1h6v2l-2.875.937c-2.985.937-2.985.937-5.125 2.063l1 2 11-1-.035-2.797c-.077-11.098.4-22.125 1.035-33.203zm162.875 86-1.996 1.156Q297.437 437.573 295 439c3.67 8.083 10.128 14.559 17 20l4-2-5-26c-3.442 0-6.217 2.296-9.125 4M316 462v3Z"></path>
        <path fill="#535353" d="M171.797 90.684c3.234.003 6.467-.02 9.701-.046 15.986-.05 32.286.514 47.315 6.55l2.364.914c30.558 12.216 56.174 37.823 70.292 67.292 11.822 27.835 12.014 59.62 1.09 87.798C297.734 264.837 291.355 275.547 283 285l-2.113 2.441C272.86 296.553 264.305 305.188 255 313c8.907 18.048 18.145 35.888 28.137 53.362 4.372 7.68 8.483 15.477 12.537 23.33 3.92 7.577 7.996 15.055 12.17 22.495l1.094 1.976c.973 1.683 2.06 3.298 3.156 4.903 3.25 5.69 3.795 12.505 4.906 18.871.506 2.792 1.022 5.582 1.54 8.371l.377 2.05c1.17 6.276 2.687 12.407 4.42 18.548.737 3.438.778 6.587.663 10.094-8.075-2.613-12.32-8.535-17.41-14.938-3.296-4.014-7.026-7.596-10.78-11.178-1.304-1.26-2.561-2.568-3.81-3.884v-2l-1.687-.094c-2.962-.52-4.789-1.232-7.313-2.906-2.84-4.334-4.85-8.95-6.943-13.68-1.764-3.873-3.75-7.624-5.744-11.383l-1.267-2.408c-3.231-6.1-6.62-12.1-10.046-18.092-6.42-11.232-12.466-22.65-18.468-34.11l-2.172-4.136-1.067-2.031c-3.054-5.784-6.259-11.48-9.538-17.138C225 334.214 225 334.214 225 332l-1.573.734a1250 1250 0 0 1-7.114 3.266l-2.475 1.156-2.412 1.094-2.206 1.015c-2.515.832-4.587.864-7.22.735-1.582-3.462-2.759-6.205-2-10 4.584-4.808 8.83-6.27 15.387-7.418 14.388-2.578 23.508-11.522 34.024-21.211 2.185-2.001 4.4-3.946 6.652-5.871 17.121-15 30.007-32.535 38.937-53.5l.965-2.207c7.956-19.434 5.432-42.805-2.292-61.779C287.59 163.768 279.822 150.95 270 139l-1.73-2.266C255.71 120.98 233.716 112.532 215 107l-3.273-1.035c-10.623-2.75-21.006-3.329-31.914-3.278l-2.2.002c-10.83.022-21.05.778-31.613 3.31-4.075.848-5.869 1.033-10 0l-3 9 3 1a85 85 0 0 1-2 7l4-1c-.527 4.22-2.122 7.374-4.16 11.036-1.102 2.222-1.102 2.222-.84 5.965l2-2h3c-.534 4.544-2.476 7.255-5 11v3l3-2c1 3 1 3-.433 6.25a278 278 0 0 1-2.004 3.75c-2.693 4.72-2.693 4.72-3.563 10l1.75-2.5L134 164h4c-1.84 4.882-4.217 9.465-6.609 14.091-1.795 3.287-1.795 3.287-2.39 6.909l1.687-2.438c2.531-2.805 3.638-3.256 7.312-3.562-.984 3.67-2.207 6.448-4.5 9.437-2.58 3.41-3.567 6.409-4.5 10.563l1.813-1.5C133 196 133 196 136 196c-.98 3.433-1.967 5.954-4.062 8.875-2.427 3.914-2.624 6.573-2.938 11.125l4-4c1.182 2.886.98 4.06.004 7.093l-1.441 3.407C129.91 226.426 129 228.698 129 233l1.813-2c2.187-2 2.187-2 5.187-2-1.72 5.448-3.847 10.711-6 16l1 1 1.313-1.5C134 243 134 243 137 243c-.34 3.626-1.504 5.919-3.5 8.875-2.503 3.795-3.218 6.614-3.5 11.125l1.875-2c2.125-2 2.125-2 4.125-2-.4 3.91-1.381 6.99-3.062 10.5-1.718 3.664-2.359 6.395-1.938 10.5l1.688-2.938C135 274 135 274 137.75 273.125L140 273c-.64 3.215-1.811 5.577-3.5 8.375-2.038 3.554-3.18 6.479-3.5 10.625l1.813-2c2.187-2 2.187-2 5.187-2-1 3.232-2.085 6.166-3.625 9.187-1.594 2.74-1.594 2.74-1.375 5.813l2-2h3c-.671 3.806-1.727 7.352-3 11h3c-.687 3.894-1.723 7.17-3 11l17 1-1-5a84 84 0 0 1-.19-4.386l-.05-2.567-.04-2.778-.056-2.96q-.085-4.855-.164-9.712l-.123-6.825q-.162-9.02-.314-18.041-.273-16.005-.563-32.009l-.062-3.456c-.43-23.773-1.033-47.529-2.438-71.266l6 2 1 5 2-1.438c5.206-2.71 9.189-3.115 14.688-1.437 4.565 2.584 7.419 5.534 10.312 9.875v3l3-1c3.843 3.073 4.501 5.594 5.43 10.187.447 2.044.447 2.044 2.695 3.375L196 196l-.234 3.011c.327 5.557 2.802 8.707 5.86 13.239 5.153 7.986 9.93 16.094 14.356 24.5a399 399 0 0 0 1.927 3.606c.91 1.687 1.796 3.386 2.681 5.085l1.559 2.96c.851 2.599.851 2.599.002 4.946-.38.545-.76 1.09-1.15 1.653h-2l-1.837-3.524c-4.753-9.093-9.592-18.129-14.6-27.085A1122 1122 0 0 1 192 205l-4 3 1.219 2.193 7.72 13.895q4.595 8.265 9.179 16.537l1.367 2.467q1.23 2.217 2.456 4.436c1.562 2.817 3.114 5.55 4.95 8.198 1.11 2.274 1.11 2.274.578 4.29-1.818 2.456-3.8 4.579-5.969 6.734l-2.406 2.422C205 271 205 271 203 271c-15.698-30.244-15.698-30.244-21.414-41.801a591 591 0 0 0-3.172-6.305l-1.414-2.77-1.187-2.304C175 216 175 216 175 214l-4 3 1.07 2.099q4.986 9.79 9.934 19.598 2.544 5.043 5.109 10.075 2.475 4.856 4.921 9.726a606 606 0 0 0 1.887 3.708 591 591 0 0 1 2.623 5.199l1.514 2.988c.942 2.607.942 2.607.783 4.894l-.84 1.713-3 1c-6.26-10.775-11.96-21.782-17.376-33l-.909-1.876C167 223.044 167 223.044 167 218l-1.875-.313C163 217 163 217 161 214l-1-7-2-3 .016 1.784q.192 21.894.376 43.789.089 10.59.181 21.179c.153 17.483.29 34.967.402 52.45q.038 5.592.08 11.182.06 8.562.088 17.123.014 3.096.037 6.192c.081 10.976-.157 21.474-2.18 32.3l1.868.833c4.1 2.245 5.773 6.112 7.234 10.402 2.342 9.816.985 20.13-.578 29.973-.634 4.593-1.032 9.168-1.336 13.793l-.197 2.429c-.37 6.366 1.05 10.22 5.197 15.196C171 465 171 465 171 469c-3.8 2.615-7.255 1.88-11.562 1.187l-2.037-.29c-2.916-.432-5.6-.963-8.4-1.897v-2l-1.626-.688c-9.083-5.02-14.702-13.629-17.68-23.437-2.875-16.027-1.576-34.388 4.383-49.632 1.08-3.798 1.017-7.15.75-11.036l-.126-2.242a931 931 0 0 0-.452-7.153l-.296-4.915c-.561-9.108-1.252-18.187-2.348-27.248-.45-3.765-.644-7.362-.48-11.15.128-4.65-1.35-8.25-3.063-12.524-3.506-9.815-3.571-20.598-4.125-30.913l-.236-4.072a1667 1667 0 0 1-.58-10.715c-.123-2.308-.258-4.616-.394-6.923-.89-15.86-.969-31.722-.978-47.602l-.002-2.181c-.024-21.851.448-43.623 1.627-65.444l.192-3.61c1.949-35.859 1.949-35.859 8.433-48.515 2.92-2.146 3.672-2.521 7-3l2.164-.5c10.122-2.071 20.343-1.837 30.633-1.816M132 124l1 2Zm24 53c-1.067 5.463-1.125 10.312 2 15 3.541-1.383 6.992-2.897 10.438-4.5 3.8-1.742 7.547-3.307 11.562-4.5-1.271-4.972-2.797-7.96-7-11-6.11-1.446-13.027-.121-17 5m28 6c-1.943.956-1.943.956-4.125 2.437-7.02 4.388-14.445 7.93-21.875 11.563l1 4c3.584 1.002 3.584 1.002 7 0l-2 5 2 1 1.263-1.4c1.833-1.689 3.203-2.368 5.53-3.206l2.159-.79 2.236-.792 2.271-.826c1.845-.67 3.693-1.329 5.541-1.986-1.468 1.468-3.19 2.297-5 3.312l-2.437 1.367c-3.173 1.635-6.442 2.87-9.813 4.036-2.098 1.25-2.098 1.25-2.5 4.414l-.25 2.87c9.767-4.826 19.446-9.764 29-15l-1-2-3-1c-1.424-2.848-2.178-5.667-3-8.75l-1-3.25zm64 134c.577 3.595 1.52 6.323 3.301 9.492l1.444 2.6 1.568 2.783q1.653 2.98 3.3 5.96l1.71 3.093c2.632 4.82 5.156 9.694 7.677 14.572a979 979 0 0 0 12.99 24.202c3.412 6.217 6.657 12.506 9.85 18.837l1.286 2.539q3.212 6.342 6.377 12.707 1.184 2.35 2.372 4.699l1.082 2.21c1.436 2.817 2.578 4.972 5.176 6.838 1.942.702 1.942.702 3.867-.532-1.501-4.086-3.506-7.751-5.687-11.5-4.356-7.621-8.418-15.385-12.438-23.188l-.963-1.869q-2.965-5.756-5.922-11.515c-11.102-21.65-11.102-21.65-22.552-43.116l-1.407-2.587c-4.78-8.754-4.78-8.754-10.03-17.225-1.224-.075-1.224-.075-3 1m-19 12c1.353 3.548 2.919 6.855 4.73 10.191l1.661 3.069 1.797 3.302 4.82 8.9c2.27 4.192 4.52 8.393 6.762 12.6a2044 2044 0 0 0 23.642 43.11q2.289 4.079 4.545 8.175l1.376 2.494q1.24 2.25 2.473 4.505A139 139 0 0 0 288 437l5-2a2566 2566 0 0 0-12.875-23.375c-12.629-22.713-25.173-45.461-37.399-68.395A4681 4681 0 0 0 234 327c-1.84 0-3.396 1.172-5 2m-92 1 1 2h8v1l-9 2v2l9-1-1 2c-2.314.73-4.648 1.401-7 2v1l8 1v1l-8 2v1q3.157.04 6.313.062l3.55.035c3.168.052 3.168.052 6.137-1.097v-15zm2 19v7h9l-1 2c-2.314.73-4.648 1.401-7 2l1 3 8-2v3l-8 2v3l2.938-.063C147 369 147 369 148 370l-7 3v3l7-2v3l-5 2v1h6v2l-2.875.937c-2.985.937-2.985.937-5.125 2.063l1 2 11-1-.035-2.797c-.077-11.098.4-22.125 1.035-33.203zm162.875 86-1.996 1.156Q297.437 437.573 295 439c3.67 8.083 10.128 14.559 17 20l4-2-5-26c-3.442 0-6.217 2.296-9.125 4M316 462v3Z"></path>
        <path fill="#F28B93" d="M171.797 90.684c3.234.003 6.467-.02 9.701-.046 15.986-.05 32.286.514 47.315 6.55l2.364.914c30.558 12.216 56.174 37.823 70.292 67.292 11.822 27.835 12.014 59.62 1.09 87.798C297.734 264.837 291.355 275.547 283 285l-2.113 2.441C272.86 296.553 264.305 305.188 255 313c8.907 18.048 18.145 35.888 28.137 53.362 4.372 7.68 8.483 15.477 12.537 23.33 3.92 7.577 7.996 15.055 12.17 22.495l1.094 1.976c.973 1.683 2.06 3.298 3.156 4.903 3.25 5.69 3.795 12.505 4.906 18.871.506 2.792 1.022 5.582 1.54 8.371l.377 2.05c1.17 6.276 2.687 12.407 4.42 18.548.737 3.438.778 6.587.663 10.094-8.075-2.613-12.32-8.535-17.41-14.938-3.296-4.014-7.026-7.596-10.78-11.178-1.304-1.26-2.561-2.568-3.81-3.884v-2l-1.687-.094c-2.962-.52-4.789-1.232-7.313-2.906-2.84-4.334-4.85-8.95-6.943-13.68-1.764-3.873-3.75-7.624-5.744-11.383l-1.267-2.408c-3.231-6.1-6.62-12.1-10.046-18.092-6.42-11.232-12.466-22.65-18.468-34.11l-2.172-4.136-1.067-2.031c-3.054-5.784-6.259-11.48-9.538-17.138C225 334.214 225 334.214 225 332l-1.573.734a1250 1250 0 0 1-7.114 3.266l-2.475 1.156-2.412 1.094-2.206 1.015c-2.515.832-4.587.864-7.22.735-1.582-3.462-2.759-6.205-2-10 4.584-4.808 8.83-6.27 15.387-7.418 14.388-2.578 23.508-11.522 34.024-21.211 2.185-2.001 4.4-3.946 6.652-5.871 17.121-15 30.007-32.535 38.937-53.5l.965-2.207c7.956-19.434 5.432-42.805-2.292-61.779C287.59 163.768 279.822 150.95 270 139l-1.73-2.266C255.71 120.98 233.716 112.532 215 107l-3.273-1.035c-10.623-2.75-21.006-3.329-31.914-3.278l-2.2.002c-10.83.022-21.05.778-31.613 3.31-5.691 1.221-7.924.588-13-2-1-1-1-1-1.062-4.562L132 96c12.4-6.2 26.28-5.343 39.797-5.316M248 317c.577 3.595 1.52 6.323 3.301 9.492l1.444 2.6 1.568 2.783q1.653 2.98 3.3 5.96l1.71 3.093c2.632 4.82 5.156 9.694 7.677 14.572a979 979 0 0 0 12.99 24.202c3.412 6.217 6.657 12.506 9.85 18.837l1.286 2.539q3.212 6.342 6.377 12.707 1.184 2.35 2.372 4.699l1.082 2.21c1.436 2.817 2.578 4.972 5.176 6.838 1.942.702 1.942.702 3.867-.532-1.501-4.086-3.506-7.751-5.687-11.5-4.356-7.621-8.418-15.385-12.438-23.188l-.963-1.869q-2.965-5.756-5.922-11.515c-11.102-21.65-11.102-21.65-22.552-43.116l-1.407-2.587c-4.78-8.754-4.78-8.754-10.03-17.225-1.224-.075-1.224-.075-3 1m-19 12c1.353 3.548 2.919 6.855 4.73 10.191l1.661 3.069 1.797 3.302 4.82 8.9c2.27 4.192 4.52 8.393 6.762 12.6a2044 2044 0 0 0 23.642 43.11q2.289 4.079 4.545 8.175l1.376 2.494q1.24 2.25 2.473 4.505A139 139 0 0 0 288 437l5-2a2566 2566 0 0 0-12.875-23.375c-12.629-22.713-25.173-45.461-37.399-68.395A4681 4681 0 0 0 234 327c-1.84 0-3.396 1.172-5 2m72.875 106-1.996 1.156Q297.437 437.573 295 439c3.67 8.083 10.128 14.559 17 20l4-2-5-26c-3.442 0-6.217 2.296-9.125 4M316 462v3Z"></path>
        <path fill="#DCE9BA" d="m174.25 132.75 3.093.027c24.89.382 49.821 9.664 68.657 26.223l2.473 2.043c13.104 11.167 22.097 25.592 23.712 42.94 1.6 24.339-8.615 46.67-24.185 65.017l-2.355 2.797c-11.788 13.61-31.003 31.55-49.52 33.64C193 305 193 305 191.063 303.876c-1.55-2.735-1.385-4.787-1.063-7.875l2-3-4-1c-.415-3.386-.63-5.97 1.195-8.953 2.708-3.238 5.004-5.208 8.805-7.047a279 279 0 0 0 5-5 457 457 0 0 1 3.813-3.25c3.909-3.36 7.216-7.081 10.523-11.027L219 255h2l.762-2.176c1.346-3.071 3.003-5.36 5.05-8.012 8.481-11.42 13.607-23.741 11.754-38.195-2.68-12.813-8.366-23.72-19.195-31.508-9.32-5.722-17.23-7.28-28.047-7.101l-5.697.05q-4.453.045-8.906.113c-2.882.043-5.764.066-8.647.087l-2.652.056c-5.882.024-11.05-.813-16.422-3.314l-2-2c.023-2.383.023-2.383.375-5.125l.336-2.758L148 153l-1.887-.422c-2.579-.705-3.61-1.362-5.113-3.578 0-3.488.895-4.873 3.125-7.562 9.165-7.77 18.43-8.803 30.125-8.688"></path>
        <path fill="#FAD2B0" d="M255.773 145.879C262.72 151.473 268.551 157.181 273 165l1.828 3.102c10.069 18.403 12.807 41.806 7.078 62.07-.3.933-.598 1.867-.906 2.828l-.844 2.953c-5.471 18.017-15.78 33.194-28.767 46.606a341 341 0 0 0-4.007 4.25c-12.179 12.74-29.435 26.718-47.449 29.27C198 316 198 316 195.313 314.5c-1.313-2.5-1.313-2.5-1.75-5.437 2.06-4.391 4.977-5.019 9.347-6.801 27.073-11.056 50.566-34.648 62.031-61.465 7.342-19.4 8.791-37.861.621-57.2-10.903-22.04-33.336-36.193-55.946-44.093-11.983-4.02-22.373-5.687-34.991-5.754l-2.922-.062c-9.19-.05-17.675 1.755-25.703 6.312v-2l-2.313-.25C141 137 141 137 139.125 135.438c-1.664-3.605-1.324-6.76-.125-10.438 23.252-28.677 95.149 4.099 116.773 20.879"></path>
        <path fill="#535353" d="M253 313c2.787 2.458 4.234 5.086 5.898 8.39l1.682 3.304 1.795 3.556c4.549 8.92 9.214 17.744 14.188 26.438 6.67 11.67 13.074 23.472 19.437 35.312l5.698 10.594q1.818 3.382 3.634 6.767l1.672 3.112 1.575 2.957c1.47 2.744 1.47 2.744 3.636 5.882 3.209 5.568 3.696 12.384 4.785 18.625q.761 4.188 1.54 8.372l.376 2.049c1.17 6.277 2.687 12.407 4.42 18.548.738 3.439.78 6.588.664 10.094-8.075-2.613-12.32-8.534-17.41-14.937-3.296-4.015-7.026-7.597-10.78-11.178-1.304-1.26-2.562-2.57-3.81-3.885v-2c-.557-.03-1.114-.062-1.687-.094-2.962-.52-4.79-1.231-7.313-2.906-2.84-4.333-4.85-8.95-6.943-13.68-1.764-3.873-3.751-7.623-5.745-11.382l-1.267-2.408c-3.23-6.1-6.62-12.1-10.045-18.092-6.42-11.233-12.467-22.65-18.469-34.11l-2.172-4.137-1.064-2.035a270 270 0 0 0-5.879-10.61l-1.279-2.2a300 300 0 0 0-2.47-4.148c-2.723-4.663-2.723-4.663-2.41-7.649L226 330c2.712.342 3.742.67 5.457 2.86l1.356 2.46 1.55 2.776 1.637 3.029 1.73 3.13c4.382 7.976 8.586 16.042 12.757 24.128 3.944 7.615 8.107 15.087 12.357 22.535 5.353 9.39 10.57 18.853 15.776 28.325 3.085 5.61 6.176 11.213 9.38 16.757l4-2-1.73-2.875c-5.667-9.488-11.02-19.116-16.248-28.852A904 904 0 0 0 262.75 382c-6.208-10.878-12.084-21.923-17.927-33l-1.05-1.99q-1.01-1.915-2.017-3.83a297 297 0 0 0-6.943-12.45C234 329 234 329 234 326c2.3-1.79 2.3-1.79 5.313-3.625l2.988-1.852C245 319 245 319 248 318c14.716 27.384 29.298 54.837 43.652 82.413a5131 5131 0 0 0 6.91 13.212l1.231 2.353q1.105 2.105 2.23 4.199a230 230 0 0 1 2.504 4.846L306 427h4l-1.555-2.488c-6.237-10.204-11.753-20.746-17.195-31.387l-1.177-2.3q-2.932-5.74-5.857-11.482c-8.318-16.315-16.772-32.552-25.595-48.6l-1.309-2.385q-1.36-2.444-2.76-4.865l-1.392-2.423-1.257-2.155C251 317 251 317 251 314zm48.875 122-1.996 1.156Q297.437 437.574 295 439c3.67 8.084 10.128 14.56 17 20l4-2-5-26c-3.442 0-6.218 2.296-9.125 4M316 462v3Z"></path>
        <path fill="#B0DBC7" d="m182.063 148.625 3.382-.004c9.934.13 19.27 1.477 28.555 5.066l2.066.797c16.188 6.477 28.721 18.347 36.177 34.149 6.186 14.765 6.619 29.28.757 44.367-8.693 20.102-26.355 44.6-46 55-6.367 2.346-12.157 4.289-19 4-.414-3.386-.63-5.97 1.196-8.953 2.707-3.238 5.004-5.208 8.804-7.047a279 279 0 0 0 5-5 457 457 0 0 1 3.813-3.25c3.91-3.36 7.216-7.081 10.523-11.027L219 255h2l.762-2.176c1.347-3.071 3.003-5.36 5.051-8.012 8.48-11.42 13.606-23.741 11.754-38.195-2.68-12.813-8.366-23.72-19.195-31.508-9.32-5.722-17.23-7.28-28.047-7.101l-5.698.05q-4.452.045-8.906.113c-2.882.043-5.764.066-8.646.087l-2.653.056c-5.881.024-11.05-.813-16.422-3.314l-2-2c.024-2.383.024-2.383.375-5.125l.336-2.758.29-2.117c11.39-2.91 22.284-4.388 34.062-4.375"></path>
        <path fill="#043218" d="M137 391h3a764 764 0 0 1-.437 4.375l-.247 2.46C139 400 139 400 138 402h2l2-11h2c.082 4.161-.018 7.947-1 12 2.39-3.825 2.56-7.597 3-12h2l-.184 1.721C146.682 403.51 145.637 414.14 146 425c1.59-11.31 2.85-22.637 4-34h5q.941 1.842 1.875 3.688l1.055 2.074L159 399l1.117 2.266c1.166 3.61 1.18 7.045 1.133 10.796l-.012 2.298c-.065 4.296-.41 8.35-1.238 12.577-2.12 11.135-3.027 24.024 3 34.063.978 1.35 1.973 2.687 3 4-7.357-.377-13.283-4.957-18.312-10.062-3.925-4.833-5.174-11.015-6.688-16.938v8l-2-3c.966 3.194 1.936 5.896 3.688 8.75L144 454l-1 2c-11.247-12.452-9.752-29.303-9-45 .644-6.725 1.754-13.364 3-20"></path>
        <path fill="#3D0606" d="M243 320c3.942 1.314 4.159 2.68 6.004 6.336l1.728 3.383 1.83 3.656q.954 1.876 1.911 3.751 1.908 3.738 3.802 7.48a876 876 0 0 0 6.538 12.582l1.157 2.195c3.696 7 7.406 13.99 11.117 20.982q1.098 2.067 2.193 4.133a2610 2610 0 0 0 12.115 22.611l3.11 5.745q1.462 2.69 2.937 5.376l1.777 3.282 1.56 2.858c1.194 2.573 1.798 4.836 2.221 7.63-5.75 3-5.75 3-8 3l-1.462-2.772c-11.866-22.505-11.866-22.505-23.986-44.874-5.201-9.49-10.256-19.057-15.303-28.629-3.208-6.071-6.438-12.117-9.85-18.077l-1.6-2.808a336 336 0 0 0-2.928-5.005c-1.258-2.194-1.258-2.194-2.871-5.835 1.246-3.385 2.864-5.195 6-7"></path>
        <path fill="#3D0606" d="M185 209c1.318 1.689 1.318 1.689 2.488 3.926l1.37 2.565 1.454 2.821 3.165 5.981 1.704 3.255a998 998 0 0 0 5.905 11.003q1.545 2.85 3.087 5.702l2.025 3.732q1.428 2.633 2.845 5.273l1.657 3.067C212 259 212 259 213 263l-7 6c-5.38-9.82-10.75-19.646-16.031-29.52l-1.018-1.903q-2.484-4.645-4.961-9.295l-1.838-3.442-1.625-3.051a113 113 0 0 0-3.228-5.517C176 214 176 214 176.062 211.812c.938-1.812.938-1.812 2.75-3.125 2.617-.822 3.65-.678 6.188.313"></path>
        <path fill="#38483F" d="M140 435c2.097 3.145 2.977 5.768 4.063 9.375l1.035 3.398c1.624 5.81 1.624 5.81 1.902 8.227l-2 2c-7.852-13.449-7.852-13.449-8-21 2 3 2 3 3 5z"></path>
        <path fill="#4B504E" d="M152 392c3.79 3.424 4.764 5.51 5.238 10.516.182 6.68-.662 10.804-4.238 16.484l-2 1 .656-1.871c2.562-7.793 3.848-14.464.344-22.129z"></path>
        <path fill="#38483F" d="m146 405 3 1-2 21c-2-2-2-2-2.23-4.793.073-5.824.163-11.473 1.23-17.207"></path>
        <path fill="#113822" d="M150 391h5l4 8-3 1-3-7-3 4z"></path>
        <path fill="#484F4B" d="M147 395h1v5h2l-2 9h-1z"></path>
        <path fill="#143924" d="M142 391h2c.286 7.429.286 7.429-2 11-1.054-3.982-.841-6.982 0-11"></path>
    </g>
</svg>